<svg version="1.2" xmlns="http://www.w3.org/2000/svg" viewBox="0 0 200 200" width="200" height="200">
	<title>New Project</title>
	<style>
		.s0 { fill: #f56a6a } 
	</style>
	<path id="Shape 1" fill-rule="evenodd" class="s0" d="m30 50c0-16.6 13.4-30 30-30h29.9v59.5c0 4.2 4.8 6.5 8.1 3.9l16.9-13.5 16.8 13.5c3.3 2.6 8.1 0.3 8.1-3.9v-59.5h20c5.5 0 10 4.5 10 10v99.8c0 5.6-4.5 10-10 10v20c5.5 0 10 4.4 10 10 0 5.5-4.5 10-10 10h-99.8c-16.6 0-30-13.5-30-30zm20 99.8c0 5.6 4.4 10 10 10h79.8v-19.9h-79.8c-5.6 0-10 4.4-10 9.9z"/>
</svg>