<svg version="1.2" xmlns="http://www.w3.org/2000/svg" viewBox="0 0 200 200" width="200" height="200">
	<title>New Project</title>
	<style>
		.s0 { fill: #f56a6a } 
	</style>
	<path id="Shape 2" fill-rule="evenodd" class="s0" d="m67.3 33c3.2 2.8 3.4 7.6 0.6 10.8l-22.9 25.3c-1.4 1.6-3.3 2.5-5.4 2.6-2.1 0-4.1-0.8-5.6-2.3l-12.8-12.7c-2.9-2.9-2.9-7.8 0-10.8 3-2.9 7.9-2.9 10.8 0l7 7.1 17.5-19.5c2.9-3.1 7.7-3.4 10.8-0.5zm0 50.8c3.2 2.8 3.4 7.6 0.6 10.7l-22.9 25.4c-1.4 1.6-3.3 2.5-5.4 2.6-2.1 0-4.1-0.8-5.6-2.3l-12.8-12.7c-2.9-3-2.9-7.8 0-10.7 3-3 7.9-3 10.8 0l7 7 17.5-19.4c2.9-3.2 7.7-3.4 10.8-0.6zm22.9-32.5c0-5.6 4.5-10.1 10.1-10.1h71.2c5.6 0 10.2 4.5 10.2 10.1 0 5.7-4.6 10.2-10.2 10.2h-71.2c-5.6 0-10.1-4.5-10.1-10.2zm0 50.8c0-5.6 4.5-10.1 10.1-10.1h71.2c5.6 0 10.2 4.5 10.2 10.1 0 5.7-4.6 10.2-10.2 10.2h-71.2c-5.6 0-10.1-4.5-10.1-10.2zm-20.4 50.8c0-5.6 4.6-10.1 10.2-10.1h91.5c5.6 0 10.2 4.5 10.2 10.1 0 5.6-4.6 10.2-10.2 10.2h-91.5c-5.6 0-10.2-4.6-10.2-10.2zm-35.5-15.2c4 0 7.9 1.6 10.7 4.5 2.9 2.8 4.5 6.7 4.5 10.7 0 4.1-1.6 7.9-4.5 10.8-2.8 2.9-6.7 4.5-10.7 4.5-4.1 0-8-1.6-10.8-4.5-2.9-2.9-4.5-6.7-4.5-10.8 0-4 1.6-7.9 4.5-10.7 2.8-2.9 6.7-4.5 10.8-4.5z"/>
</svg>