<?xml version="1.0" standalone="no"?>
<!DOCTYPE svg PUBLIC "-//W3C//DTD SVG 20010904//EN" "http://www.w3.org/TR/2001/REC-SVG-20010904/DTD/svg10.dtd">
<!-- Created using Krita: https://krita.org -->
<svg xmlns="http://www.w3.org/2000/svg" 
    xmlns:xlink="http://www.w3.org/1999/xlink"
    xmlns:krita="http://krita.org/namespaces/svg/krita"
    xmlns:sodipodi="http://sodipodi.sourceforge.net/DTD/sodipodi-0.dtd"
    width="240pt"
    height="240pt"
    viewBox="0 0 240 240">
<defs/>
<g id="group0" transform="translate(0, 0.12000100017908)" fill="none">
  <path id="shape0" transform="translate(0, -0.12000100017908)" fill="#ffffff" fill-rule="evenodd" d="M239.88 82.56L239.852 80.3985L239.769 78.2507L239.632 76.1174L239.441 73.9991L239.197 71.8965L238.9 69.8103L238.552 67.7413L238.152 65.6901L237.703 63.6573L237.203 61.6436L236.655 59.6498L236.058 57.6765L235.414 55.7243L234.722 53.794L233.985 51.8863L233.201 50.0017L232.373 48.1411L231.501 46.305L230.585 44.4941L229.626 42.7092L228.625 40.951L227.582 39.2199L226.498 37.5169L225.374 35.8425L224.211 34.1974L223.009 32.5824L221.769 30.998L220.491 29.445L219.177 27.924L217.826 26.4357L216.44 24.9808L215.019 23.56L213.564 22.174L212.076 20.8234L210.555 19.5089L209.002 18.2311L207.418 16.9909L205.803 15.7888L204.157 14.6255L202.483 13.5018L200.78 12.4182L199.049 11.3755L197.291 10.3743L195.506 9.41535L193.695 8.4993L191.859 7.62682L189.998 6.7986L188.114 6.01532L186.206 5.27766L184.276 4.58628L182.324 3.94188L180.35 3.34513L178.356 2.79671L176.343 2.2973L174.31 1.84758L172.259 1.44822L170.19 1.09991L168.104 0.80332L166.001 0.559136L163.883 0.368032L161.749 0.23069L159.601 0.147786L157.44 0.120001L155.279 0.147786L153.131 0.23069L150.997 0.368032L148.879 0.559136L146.776 0.80332L144.69 1.09991L142.621 1.44822L140.57 1.84758L138.537 2.2973L136.524 2.79671L134.53 3.34513L132.556 3.94188L130.604 4.58628L128.674 5.27766L126.766 6.01532L124.882 6.7986L123.021 7.62682L121.185 8.4993L119.374 9.41535L117.589 10.3743L115.831 11.3755L114.1 12.4182L112.397 13.5018L110.723 14.6255L109.077 15.7888L107.462 16.9909L105.878 18.2311L104.325 19.5089L102.804 20.8234L101.316 22.174L99.8608 23.56L98.44 24.9808L97.054 26.4357L95.7034 27.924L94.3889 29.445L93.1111 30.998L91.8709 32.5824L90.6688 34.1974L89.5055 35.8425L88.3818 37.5169L87.2982 39.2199L86.2555 40.951L85.2543 42.7092L84.2953 44.4941L83.3793 46.305L82.5068 48.1411L81.6786 50.0017L80.8953 51.8863L80.1577 53.794L79.4663 55.7243L78.8219 57.6765L78.2251 59.6498L77.6767 61.6436L77.1773 63.6573L76.7276 65.6901L76.3282 67.7413L75.9799 69.8103L75.6833 71.8965L75.4391 73.9991L75.248 76.1174L75.1107 78.2507L75.0278 80.3985L75 82.56L75.0278 84.7215L75.1107 86.8693L75.248 89.0026L75.4391 91.121L75.6833 93.2235L75.9799 95.3097L76.3282 97.3787L76.7276 99.4299L77.1773 101.463L77.6767 103.476L78.2251 105.47L78.8219 107.444L79.4663 109.396L80.1577 111.326L80.8953 113.234L81.6786 115.118L82.5068 116.979L83.3793 118.815L84.2953 120.626L85.2543 122.411L86.2555 124.169L87.2982 125.9L88.3818 127.603L89.5055 129.277L90.6688 130.923L91.8709 132.538L93.1111 134.122L94.3889 135.675L95.7034 137.196L97.054 138.684L98.44 140.139L99.8608 141.56L101.316 142.946L102.804 144.297L104.325 145.611L105.878 146.889L107.462 148.129L109.077 149.331L110.723 150.494L112.397 151.618L114.1 152.702L115.831 153.745L117.589 154.746L119.374 155.705L121.185 156.621L123.021 157.493L124.882 158.321L126.766 159.105L128.674 159.842L130.604 160.534L132.556 161.178L134.53 161.775L136.524 162.323L138.537 162.823L140.57 163.272L142.621 163.672L144.69 164.02L146.776 164.317L148.879 164.561L150.997 164.752L153.131 164.889L155.279 164.972L157.44 165L159.601 164.972L161.749 164.889L163.883 164.752L166.001 164.561L168.104 164.317L170.19 164.02L172.259 163.672L174.31 163.272L176.343 162.823L178.356 162.323L180.35 161.775L182.324 161.178L184.276 160.534L186.206 159.842L188.114 159.105L189.998 158.321L191.859 157.493L193.695 156.621L195.506 155.705L197.291 154.746L199.049 153.745L200.78 152.702L202.483 151.618L204.157 150.494L205.803 149.331L207.418 148.129L209.002 146.889L210.555 145.611L212.076 144.297L213.564 142.946L215.019 141.56L216.44 140.139L217.826 138.684L219.177 137.196L220.491 135.675L221.769 134.122L223.009 132.538L224.211 130.923L225.374 129.277L226.498 127.603L227.582 125.9L228.625 124.169L229.626 122.411L230.585 120.626L231.501 118.815L232.373 116.979L233.201 115.118L233.985 113.234L234.722 111.326L235.414 109.396L236.058 107.444L236.655 105.47L237.203 103.476L237.703 101.463L238.152 99.4299L238.552 97.3787L238.9 95.3097L239.197 93.2235L239.441 91.121L239.632 89.0026L239.769 86.8693L239.852 84.7215L239.88 82.56M220.943 76.3221L220.91 74.7843L220.837 73.2566L220.725 71.7395L220.574 70.2334L220.385 68.7389L220.158 67.2563L219.894 65.7862L219.593 64.3291L219.255 62.8854L218.882 61.4557L218.473 60.0403L218.029 58.6398L217.551 57.2546L217.039 55.8853L216.493 54.5323L215.915 53.1961L215.304 51.8771L214.662 50.5759L213.987 49.2929L213.282 48.0286L212.547 46.7835L211.782 45.5581L210.987 44.3528L210.163 43.1681L209.311 42.0045L208.431 40.8625L207.523 39.7426L206.589 38.6452L205.628 37.5708L204.641 36.5199L203.628 35.493L202.591 34.4905L201.529 33.513L200.443 32.5608L199.334 31.6346L198.202 30.7347L197.047 29.8617L195.87 29.016L194.672 28.1981L193.452 27.4085L192.212 26.6476L190.952 25.916L189.673 25.2141L188.375 24.5424L187.058 23.9014L185.723 23.2915L184.37 22.7133L183.001 22.1672L181.614 21.6537L180.212 21.1732L178.795 20.7263L177.362 20.3135L175.914 19.9351L174.453 19.5918L172.978 19.2839L171.49 19.0119L169.989 18.7764L168.477 18.5778L166.952 18.4165L165.417 18.2932L163.871 18.2081L162.315 18.1619L160.749 18.155L159.183 18.1876L157.628 18.2594L156.084 18.3698L154.551 18.5184L153.029 18.7046L151.52 18.928L150.023 19.1882L148.54 19.4845L147.07 19.8166L145.615 20.1839L144.174 20.586L142.748 21.0223L141.338 21.4924L139.943 21.9958L138.566 22.532L137.206 23.1006L135.863 23.7009L134.538 24.3326L133.232 24.9952L131.944 25.6881L130.677 26.4109L129.429 27.1631L128.202 27.9442L126.996 28.7538L125.811 29.5912L124.648 30.4561L123.508 31.348L122.39 32.2664L121.296 33.2107L120.226 34.1805L119.181 35.1754L118.16 36.1947L117.164 37.2382L116.195 38.3051L115.252 39.3951L114.335 40.5077L113.446 41.6424L112.585 42.7987L111.752 43.9761L110.948 45.1742L110.173 46.3924L109.428 47.6302L108.713 48.8872L108.029 50.1629L107.376 51.4568L106.755 52.7684L106.166 54.0972L105.609 55.4427L105.086 56.8045L104.597 58.1821L104.141 59.5749L103.721 60.9825L103.335 62.4044L102.985 63.8401L102.671 65.2891L102.394 66.751L102.154 68.2252L101.951 69.7113L101.786 71.2088L101.66 72.7171L101.573 74.2359L101.526 75.7645L101.518 77.3026L101.551 78.8404L101.624 80.3681L101.736 81.8852L101.886 83.3913L102.076 84.8858L102.303 86.3684L102.567 87.8385L102.868 89.2956L103.206 90.7393L103.579 92.1691L103.988 93.5844L104.432 94.9849L104.91 96.3701L105.422 97.7394L105.968 99.0924L106.546 100.429L107.157 101.748L107.799 103.049L108.473 104.332L109.178 105.596L109.914 106.841L110.679 108.067L111.474 109.272L112.298 110.457L113.15 111.62L114.03 112.762L114.938 113.882L115.872 114.98L116.833 116.054L117.82 117.105L118.833 118.132L119.87 119.134L120.932 120.112L122.018 121.064L123.127 121.99L124.259 122.89L125.414 123.763L126.591 124.609L127.789 125.427L129.009 126.216L130.249 126.977L131.509 127.709L132.788 128.411L134.086 129.082L135.403 129.723L136.738 130.333L138.091 130.911L139.46 131.458L140.846 131.971L142.249 132.451L143.666 132.898L145.099 133.311L146.547 133.69L148.008 134.033L149.483 134.341L150.971 134.613L152.472 134.848L153.984 135.047L155.509 135.208L157.044 135.332L158.59 135.417L160.146 135.463L161.712 135.47L163.278 135.437L164.833 135.365L166.377 135.255L167.91 135.106L169.432 134.92L170.941 134.697L172.438 134.437L173.921 134.14L175.391 133.808L176.846 133.441L178.287 133.039L179.713 132.602L181.123 132.132L182.517 131.629L183.895 131.093L185.255 130.524L186.598 129.924L187.923 129.292L189.229 128.63L190.516 127.937L191.784 127.214L193.032 126.462L194.259 125.68L195.465 124.871L196.65 124.033L197.813 123.169L198.953 122.277L200.071 121.358L201.165 120.414L202.235 119.444L203.28 118.449L204.301 117.43L205.297 116.387L206.266 115.32L207.209 114.23L208.126 113.117L209.015 111.982L209.876 110.826L210.709 109.649L211.513 108.451L212.288 107.232L213.033 105.994L213.748 104.737L214.432 103.462L215.085 102.168L215.706 100.856L216.295 99.5275L216.852 98.182L217.375 96.8202L217.864 95.4426L218.32 94.0498L218.74 92.6422L219.126 91.2203L219.476 89.7846L219.79 88.3356L220.067 86.8737L220.307 85.3995L220.51 83.9134L220.675 82.4159L220.801 80.9076L220.888 79.3888L220.935 77.8602L220.943 76.3221" sodipodi:nodetypes="cccccccccccccccccccccccccccccccccccccccccccccccccccccccccccccccccccccccccccccccccccccccccccccccccccccccccccccccccccccccccccccccccccccccccccccccccccccccccccccccccccccccccccccccccccccccccccccccccccccccccccccccccccccccccccccccccccccccccccccccccccccccccccccccccccccccccccccccccccccccccccccccccccccccccccccccccccccccccccccccccccccccccccccccccccccccccccccccccccccccccccccccccccccccccccccccccccccccccccccccccccccccccccccccccccccccccccccccccccccccccccccccccccccccccccccccccccccccccccccccccccccccccccccccccccccccccc"/>
  <path id="shape1" transform="translate(0, 12.3149985003485)" fill="#ffffff" fill-rule="evenodd" stroke="none" stroke-width="1.44" stroke-linecap="square" stroke-linejoin="bevel" d="M114.135 0L0 72.645L68.28 95.685L54.48 227.565L181.44 148.485L195.48 181.245L232.44 104.265L212.88 111.795L143.28 145.245L83.16 83.685L122.91 2.835" sodipodi:nodetypes="ccccccccccc"/>
 </g>
</svg>
