<?xml version="1.0" standalone="no"?>
<!DOCTYPE svg PUBLIC "-//W3C//DTD SVG 20010904//EN" "http://www.w3.org/TR/2001/REC-SVG-20010904/DTD/svg10.dtd">
<!-- Created using Krita: https://krita.org -->
<svg xmlns="http://www.w3.org/2000/svg" 
    xmlns:xlink="http://www.w3.org/1999/xlink"
    xmlns:krita="http://krita.org/namespaces/svg/krita"
    xmlns:sodipodi="http://sodipodi.sourceforge.net/DTD/sodipodi-0.dtd"
    width="240pt"
    height="240pt"
    viewBox="0 0 240 240">
<defs/>
<g id="group0" fill="none">
  <path id="shape0" fill="#8da5f3" fill-rule="evenodd" d="M24 3.55271e-15L216 0L216.629 0.00808888L217.255 0.0322238L217.876 0.0722071L218.492 0.127841L219.104 0.198928L219.712 0.285271L220.314 0.386672L220.911 0.502933L221.503 0.633857L222.089 0.779246L222.67 0.938903L223.244 1.11263L223.812 1.30023L224.374 1.5015L224.93 1.71625L225.478 1.94428L226.02 2.18539L226.555 2.43939L227.082 2.70607L227.601 2.98524L228.113 3.2767L228.617 3.58026L229.113 3.89571L229.6 4.22286L230.079 4.56151L230.55 4.91147L231.011 5.27253L231.463 5.6445L231.906 6.02718L232.339 6.42037L232.762 6.82388L233.176 7.2375L233.58 7.66105L233.973 8.09431L234.356 8.53711L234.727 8.98922L235.089 9.45047L235.438 9.92065L235.777 10.3996L236.104 10.887L236.42 11.3828L236.723 11.8867L237.015 12.3986L237.294 12.9182L237.561 13.4454L237.815 13.9799L238.056 14.5216L238.284 15.0702L238.498 15.6256L238.7 16.1876L238.887 16.7559L239.061 17.3304L239.221 17.9108L239.366 18.497L239.497 19.0888L239.613 19.686L239.715 20.2883L239.801 20.8956L239.872 21.5077L239.928 22.1244L239.968 22.7455L239.992 23.3707L240 24L240 216L239.992 216.629L239.968 217.255L239.928 217.876L239.872 218.492L239.801 219.104L239.715 219.712L239.613 220.314L239.497 220.911L239.366 221.503L239.221 222.089L239.061 222.67L238.887 223.244L238.7 223.812L238.498 224.374L238.284 224.93L238.056 225.478L237.815 226.02L237.561 226.555L237.294 227.082L237.015 227.601L236.723 228.113L236.42 228.617L236.104 229.113L235.777 229.6L235.438 230.079L235.089 230.55L234.727 231.011L234.356 231.463L233.973 231.906L233.58 232.339L233.176 232.762L232.762 233.176L232.339 233.58L231.906 233.973L231.463 234.356L231.011 234.727L230.55 235.089L230.079 235.438L229.6 235.777L229.113 236.104L228.617 236.42L228.113 236.723L227.601 237.015L227.082 237.294L226.555 237.561L226.02 237.815L225.478 238.056L224.93 238.284L224.374 238.498L223.812 238.7L223.244 238.887L222.67 239.061L222.089 239.221L221.503 239.366L220.911 239.497L220.314 239.613L219.712 239.715L219.104 239.801L218.492 239.872L217.876 239.928L217.255 239.968L216.629 239.992L216 240L24 240L23.3707 239.992L22.7455 239.968L22.1244 239.928L21.5077 239.872L20.8956 239.801L20.2883 239.715L19.686 239.613L19.0888 239.497L18.497 239.366L17.9108 239.221L17.3304 239.061L16.7559 238.887L16.1876 238.7L15.6256 238.498L15.0702 238.284L14.5216 238.056L13.9799 237.815L13.4454 237.561L12.9182 237.294L12.3986 237.015L11.8867 236.723L11.3828 236.42L10.887 236.104L10.3996 235.777L9.92065 235.438L9.45047 235.089L8.98922 234.727L8.53711 234.356L8.09431 233.973L7.66105 233.58L7.2375 233.176L6.82388 232.762L6.42037 232.339L6.02718 231.906L5.6445 231.463L5.27253 231.011L4.91147 230.55L4.56151 230.079L4.22286 229.6L3.89571 229.113L3.58026 228.617L3.2767 228.113L2.98524 227.601L2.70607 227.082L2.43939 226.555L2.18539 226.02L1.94428 225.478L1.71625 224.93L1.5015 224.374L1.30023 223.812L1.11263 223.244L0.938903 222.67L0.779246 222.089L0.633857 221.503L0.502933 220.911L0.386672 220.314L0.285271 219.712L0.198928 219.104L0.127841 218.492L0.0722071 217.876L0.0322238 217.255L0.00808888 216.629L3.55271e-15 216L0 24L0.00808888 23.3707L0.0322238 22.7455L0.0722071 22.1244L0.127841 21.5077L0.198928 20.8956L0.285271 20.2883L0.386672 19.686L0.502933 19.0888L0.633857 18.497L0.779246 17.9108L0.938903 17.3304L1.11263 16.7559L1.30023 16.1876L1.5015 15.6256L1.71625 15.0702L1.94428 14.5216L2.18539 13.9799L2.43939 13.4454L2.70607 12.9182L2.98524 12.3986L3.2767 11.8867L3.58026 11.3828L3.89571 10.887L4.22286 10.3996L4.56151 9.92065L4.91147 9.45047L5.27253 8.98922L5.6445 8.53711L6.02718 8.09431L6.42037 7.66105L6.82388 7.2375L7.2375 6.82388L7.66105 6.42037L8.09431 6.02718L8.53711 5.6445L8.98922 5.27253L9.45047 4.91147L9.92065 4.56151L10.3996 4.22286L10.887 3.89571L11.3828 3.58026L11.8867 3.2767L12.3986 2.98524L12.9182 2.70607L13.4454 2.43939L13.9799 2.18539L14.5216 1.94428L15.0702 1.71625L15.6256 1.5015L16.1876 1.30023L16.7559 1.11263L17.3304 0.938903L17.9108 0.779246L18.497 0.633857L19.0888 0.502933L19.686 0.386672L20.2883 0.285271L20.8956 0.198928L21.5077 0.127841L22.1244 0.0722071L22.7455 0.0322238L23.3707 0.00808888L24 3.55271e-15M43.8465 28.32L196.154 28.32L196.606 28.3258L197.055 28.3432L197.502 28.3719L197.945 28.4119L198.385 28.463L198.822 28.5251L199.255 28.5979L199.684 28.6815L200.109 28.7756L200.531 28.8801L200.948 28.9949L201.361 29.1198L201.769 29.2546L202.173 29.3993L202.572 29.5537L202.967 29.7176L203.356 29.8909L203.74 30.0735L204.119 30.2652L204.493 30.4658L204.861 30.6754L205.223 30.8936L205.579 31.1203L205.93 31.3555L206.274 31.5989L206.612 31.8504L206.944 32.11L207.269 32.3774L207.587 32.6524L207.898 32.9351L208.203 33.2251L208.5 33.5224L208.79 33.8269L209.073 34.1383L209.348 34.4566L209.615 34.7816L209.875 35.1132L210.126 35.4511L210.37 35.7954L210.605 36.1458L210.832 36.5022L211.05 36.8644L211.259 37.2323L211.46 37.6059L211.652 37.9848L211.834 38.369L212.008 38.7584L212.171 39.1527L212.326 39.552L212.471 39.9559L212.605 40.3644L212.73 40.7774L212.845 41.1946L212.95 41.616L213.044 42.0414L213.127 42.4706L213.2 42.9036L213.262 43.3401L213.313 43.7801L213.353 44.2234L213.382 44.6698L213.399 45.1193L213.405 45.5716L213.405 194.428L213.399 194.881L213.382 195.33L213.353 195.777L213.313 196.22L213.262 196.66L213.2 197.096L213.127 197.529L213.044 197.959L212.95 198.384L212.845 198.805L212.73 199.223L212.605 199.636L212.471 200.044L212.326 200.448L212.171 200.847L212.008 201.242L211.834 201.631L211.652 202.015L211.46 202.394L211.259 202.768L211.05 203.136L210.832 203.498L210.605 203.854L210.37 204.205L210.126 204.549L209.875 204.887L209.615 205.218L209.348 205.543L209.073 205.862L208.79 206.173L208.5 206.478L208.203 206.775L207.898 207.065L207.587 207.348L207.269 207.623L206.944 207.89L206.612 208.15L206.274 208.401L205.93 208.645L205.579 208.88L205.223 209.106L204.861 209.325L204.493 209.534L204.119 209.735L203.74 209.927L203.356 210.109L202.967 210.282L202.572 210.446L202.173 210.601L201.769 210.745L201.361 210.88L200.948 211.005L200.531 211.12L200.109 211.224L199.684 211.318L199.255 211.402L198.822 211.475L198.385 211.537L197.945 211.588L197.502 211.628L197.055 211.657L196.606 211.674L196.154 211.68L43.8465 211.68L43.3941 211.674L42.9447 211.657L42.4982 211.628L42.055 211.588L41.615 211.537L41.1784 211.475L40.7455 211.402L40.3162 211.318L39.8908 211.224L39.4694 211.12L39.0522 211.005L38.6393 210.88L38.2307 210.745L37.8268 210.601L37.4276 210.446L37.0332 210.282L36.6439 210.109L36.2596 209.927L35.8807 209.735L35.5072 209.534L35.1392 209.325L34.777 209.106L34.4206 208.88L34.0702 208.645L33.726 208.401L33.388 208.15L33.0564 207.89L32.7315 207.623L32.4132 207.348L32.1017 207.065L31.7973 206.775L31.5 206.478L31.2099 206.173L30.9273 205.862L30.6522 205.543L30.3848 205.218L30.1253 204.887L29.8737 204.549L29.6303 204.205L29.3951 203.854L29.1684 203.498L28.9502 203.136L28.7407 202.768L28.54 202.394L28.3483 202.015L28.1657 201.631L27.9924 201.242L27.8285 200.847L27.6741 200.448L27.5295 200.044L27.3946 199.636L27.2697 199.223L27.155 198.805L27.0505 198.384L26.9564 197.959L26.8728 197.529L26.7999 197.096L26.7378 196.66L26.6867 196.22L26.6467 195.777L26.618 195.33L26.6007 194.881L26.5948 194.428L26.5948 45.5716L26.6007 45.1193L26.618 44.6698L26.6467 44.2234L26.6867 43.7801L26.7378 43.3401L26.7999 42.9036L26.8728 42.4706L26.9564 42.0414L27.0505 41.616L27.155 41.1946L27.2697 40.7774L27.3946 40.3644L27.5295 39.9559L27.6741 39.552L27.8285 39.1527L27.9924 38.7584L28.1657 38.369L28.3483 37.9848L28.54 37.6059L28.7407 37.2323L28.9502 36.8644L29.1684 36.5022L29.3951 36.1458L29.6303 35.7954L29.8737 35.4511L30.1253 35.1132L30.3848 34.7816L30.6522 34.4566L30.9273 34.1383L31.2099 33.8269L31.5 33.5224L31.7973 33.2251L32.1017 32.9351L32.4132 32.6524L32.7315 32.3774L33.0564 32.11L33.388 31.8504L33.726 31.5989L34.0702 31.3555L34.4206 31.1203L34.777 30.8936L35.1392 30.6754L35.5072 30.4658L35.8807 30.2652L36.2596 30.0735L36.6439 29.8909L37.0332 29.7176L37.4276 29.5537L37.8268 29.3993L38.2307 29.2546L38.6393 29.1198L39.0522 28.9949L39.4694 28.8801L39.8908 28.7756L40.3162 28.6815L40.7455 28.5979L41.1784 28.5251L41.615 28.463L42.055 28.4119L42.4982 28.3719L42.9447 28.3432L43.3941 28.3258L43.8465 28.32" sodipodi:nodetypes="cccccccccccccccccccccccccccccccccccccccccccccccccccccccccccccccccccccccccccccccccccccccccccccccccccccccccccccccccccccccccccccccccccccccccccccccccccccccccccccccccccccccccccccccccccccccccccccccccccccccccccccccccccccccccccccccccccccccccccccccccccccccccccccccccccccccccccccccccccccccccccccccccccccccccccccccccccccccccccccccccccccccccccccccccccccccccccccccccccccccccccccccccccccccccccccccccccccccccccccccccccccccccccccccccccccccccccccccccccccccccccccccccccccccccccccccccccccccccccccccccccccccccccccccccccccccccccccccccc"/>
  <rect id="shape1" transform="translate(46.5556650042495, 54.2604034211919)" fill="#8da5f3" fill-rule="evenodd" width="29.52" height="29.52"/>
  <rect id="shape01" transform="matrix(0.900841541852434 0 0 1 95.2637588443059 54.5124034372821)" fill="#8da5f3" fill-rule="evenodd" stroke-opacity="0" stroke="#000000" stroke-width="0" stroke-linecap="square" stroke-linejoin="bevel" width="108.707987285908" height="29.52"/>
  <rect id="shape02" transform="translate(46.82567189324, 104.607600131487)" fill="#8da5f3" fill-rule="evenodd" stroke-opacity="0" stroke="#000000" stroke-width="0" stroke-linecap="square" stroke-linejoin="bevel" width="29.52" height="29.52"/>
  <rect id="shape011" transform="matrix(0.900841541852434 0 0 1 95.5069922664948 104.859600147577)" fill="#8da5f3" fill-rule="evenodd" stroke-opacity="0" stroke="#000000" stroke-width="0" stroke-linecap="square" stroke-linejoin="bevel" width="108.707987285908" height="29.52"/>
  <rect id="shape03" transform="translate(46.7956719516525, 155.967596562718)" fill="#8da5f3" fill-rule="evenodd" stroke-opacity="0" stroke="#000000" stroke-width="0" stroke-linecap="square" stroke-linejoin="bevel" width="29.52" height="29.52"/>
  <rect id="shape012" transform="matrix(0.900841541852434 0 0 1 95.5156641174382 156.219596578808)" fill="#8da5f3" fill-rule="evenodd" stroke-opacity="0" stroke="#000000" stroke-width="0" stroke-linecap="square" stroke-linejoin="bevel" width="108.707987285908" height="29.52"/>
 </g>
</svg>
